# AST/ASF file generated using VICON BodyLanguage
# -----------------------------------------------
:version 1.10
:name VICON
:units
  mass 1.0
  length 0.45
  angle deg
:documentation
   .ast/.asf automatically generated from VICON data using
   VICON BodyBuilder and BodyLanguage model FoxedUp or BRILLIANT.MOD
:root
   order TX TY TZ RX RY RZ
   axis XYZ
   position 0 0 0  
   orientation 0 0 0 
:bonedata
  begin
     id 1 
     name lhipjoint
     direction 0.54267 -0.795011 0.271047 
     length 2.39899 
     axis 0 0 0  XYZ
  end
  begin
     id 2 
     name lfemur
     direction 0.34202 -0.939693 0  
     length 7.49701  
     axis 0 0 20  XYZ
    dof rx ry rz
    limits (-160.0 20.0)
           (-70.0 70.0)
           (-60.0 70.0)
  end
  begin
     id 3 
     name ltibia
     direction 0.34202 -0.939693 0   
     length 8.1668   
     axis 0 0 20   XYZ
    dof rx
    limits (-10.0 170.0)
  end
  begin
     id 4 
     name lfoot
     direction 0.0736283 -0.202292 0.976554   
     length 2.13544   
     axis -90 7.62852e-016 20   XYZ
    dof rx rz
    limits (-45.0 90.0)
           (-70.0 20.0)
  end
  begin
     id 5 
     name ltoes
     direction 1.53557e-011 -4.22024e-011 1   
     length 1.07411   
     axis -90 7.62852e-016 20   XYZ
    dof rx
    limits (-90.0 20.0)
  end
  begin
     id 6 
     name rhipjoint
     direction -0.538061 -0.797813 0.272002   
     length 2.39057  
     axis 0 0 0  XYZ 
  end
  begin
     id 7 
     name rfemur
     direction -0.34202 -0.939693 0   
     length 7.50152   
     axis 0 0 -20   XYZ
    dof rx ry rz
    limits (-160.0 20.0)
           (-70.0 70.0)
           (-70.0 60.0)
  end
  begin
     id 8 
     name rtibia
     direction -0.34202 -0.939693 0   
     length 8.05793   
     axis 0 0 -20   XYZ
    dof rx
    limits (-10.0 170.0)
 end
 begin
     id 9 
     name rfoot
     direction -0.0765195 -0.210236 0.974652   
     length 2.28698  
     axis -90 -7.62852e-016 -20   XYZ
    dof rx rz
    limits (-45.0 90.0)
           (-20.0 70.0)
  end
  begin
     id 10 
     name rtoes
     direction -1.53542e-011 -4.21847e-011 1   
     length 1.14762   
     axis -90 -7.62852e-016 -20   XYZ
    dof rx
    limits (-90.0 20.0)
  end
  begin
     id 11 
     name lowerback
     direction -0.0217239 0.996592 -0.0795765   
     length 2.08176   
     axis 0 0 0   XYZ
    dof rx ry rz
    limits (-20.0 45.0)
           (-30.0 30.0)
           (-30.0 30.0)
  end
  begin
     id 12 
     name upperback
     direction -0.00563773 0.999651 -0.0258155   
     length 2.08898   
     axis 0 0 0   XYZ
    dof rx ry rz
    limits (-20.0 45.0)
           (-30.0 30.0)
           (-30.0 30.0)
  end
  begin
     id 13 
     name thorax
     direction 0.0032706 0.999923 0.0119599   
     length 2.0968   
     axis 0 0 0   XYZ
    dof rx ry rz
    limits (-20.0 45.0)
           (-30.0 30.0)
           (-30.0 30.0)
  end
  begin
     id 14 
     name lowerneck
     direction -0.0285886 0.99568 0.0883427   
     length 1.81272   
     axis 0 0 0   XYZ
    dof rx ry rz
    limits (-20.0 45.0)
           (-30.0 30.0)
           (-30.0 30.0)
  end
  begin
     id 15 
     name upperneck
     direction 0.0807535 0.97985 -0.18268   
     length 1.82518   
     axis 0 0 0   XYZ
    dof rx ry rz
    limits (-20.0 45.0)
           (-30.0 30.0)
           (-30.0 30.0)
  end
  begin
     id 16
     name head
     direction 0.0236605 0.997053 -0.0729767  
     length 1.84443  
     axis 0 0 0   XYZ
    dof rx ry rz
    limits (-20.0 45.0)
           (-30.0 30.0)
           (-30.0 30.0)
  end
  begin
     id 17 
     name lclavicle
     direction 0.918986 0.39378 -0.0200683  
     length 3.27822  
     axis 0 0 0   XYZ
    dof ry rz
    limits (-20.0 10.0)
           (0.0 20.0)
  end
  begin
     id 18 
     name lhumerus
     direction 1 -4.4897e-011 2.09544e-027   
     length 5.5568   
     axis 180 -30 -90   XYZ
    dof rx ry rz
    limits (-60.0 90.0)
           (-90.0 90.0)
           (-90.0 90.0)
  end
  begin
     id 19
     name lradius
     direction 1 -4.48957e-011 -1.27696e-026   
     length 3.63979   
     axis 180 -30 -90   XYZ
    dof rx
    limits (-10.0 170.0)
  end
  begin
     id 20
     name lwrist
     direction 1 -4.49001e-011 -1.49001e-026   
     length 1.8199   
     axis 9.0955e-015 90 90   XYZ
    dof ry
    limits (-180.0 0.0)
 end
  begin
     id 21 
     name lhand
     direction 1 -4.48709e-011 -2.9758e-026   
     length 0.569419   
     axis 1.90115e-014 90 90   XYZ
    dof rx rz
    limits (-90.0 90.0)
           (-45.0 45.0)
  end
  begin
     id 22 
     name lfingers
     direction 1 -4.49175e-011 -5.96505e-026   
     length 0.45908   
     axis 3.80223e-014 90 90   XYZ
    dof rx
    limits (0.0 90.0)
  end
  begin
     id 23
     name lthumb
     direction 0.707107 -6.34864e-011 0.707107   
     length 0.65915   
     axis -90 45 -3.84942e-014   XYZ
    dof rx rz
    limits (-45.0 45.0)
           (-45.0 45.0)
  end
  begin
     id 24 
     name rclavicle
     direction -0.911913 0.396426 -0.106115   
     length 3.46301  
     axis 0 0 0   XYZ 
    dof ry rz
    limits (-10.0 20.0)
           (-20.0 0.0)
  end
  begin
     id 25 
     name rhumerus
     direction -1 -4.48965e-011 7.78516e-028  
     length 5.34339   
     axis 180 30 90   XYZ
    dof rx ry rz
    limits (-90.0 60.0)
           (-90.0 90.0)
           (-90.0 90.0)
  end
  begin
     id 26 
     name rradius
     direction -1 -4.48948e-011 -5.79823e-027   
     length 3.65101   
     axis 180 30 90   XYZ
    dof rx
    limits (-10.0 170.0)
  end
  begin
     id 27 
     name rwrist
     direction -1 -4.48995e-011 -1.48996e-026   
     length 1.8255   
     axis 9.0955e-015 -90 -90   XYZ
    dof ry
    limits (-180.0 0.0)
  end
  begin
     id 28
     name rhand
     direction -1 -4.48957e-011 -2.97937e-026   
     length 0.694249   
     axis 1.90115e-014 -90 -90   XYZ
    dof rx rz
    limits (-90.0 90.0)
           (-45.0 45.0)
  end
  begin
     id 29
     name rfingers
     direction -1 -4.4898e-011 -5.95943e-026   
     length 0.559721   
     axis 3.80223e-014 -90 -90   XYZ
    dof rx
    limits (0.0 90.0)
  end
  begin
     id 30
     name rthumb
     direction -0.707107 -6.34969e-011 0.707107   
     length 0.803651   
     axis -90 -45 3.84942e-014   XYZ
    dof rx rz
    limits (-45.0 45.0)
           (-45.0 45.0)
  end
:hierarchy
  begin
    root lhipjoint rhipjoint lowerback
    lhipjoint lfemur
    lfemur ltibia
    ltibia lfoot
    lfoot ltoes
    rhipjoint rfemur
    rfemur rtibia
    rtibia rfoot
    rfoot rtoes
    lowerback upperback
    upperback thorax
    thorax lowerneck lclavicle rclavicle
    lowerneck upperneck
    upperneck head
    lclavicle lhumerus
    lhumerus lradius
    lradius lwrist
    lwrist lhand lthumb
    lhand lfingers
    rclavicle rhumerus
    rhumerus rradius
    rradius rwrist
    rwrist rhand rthumb
    rhand rfingers
  end

#!OML:ASF H:\Terrain\Walking\May29\JustinRory\rory.ASF
:FULLY-SPECIFIED
:DEGREES
225
root 12.0823 10.5529 10.7876 -17.0453 20.6919 3.8261
lowerback 49.2713 -3.55555 -9.11415
upperback 15.3214 -7.80279 1.04556
thorax -2.09939 -4.15905 8.16461
lowerneck 7.88397 -23.8041 -15.0787
upperneck -2.6227 -34.6903 35.1156
head 7.35604 -18.0551 9.54027
rclavicle 2.50469e-014 -1.47101e-014
rhumerus -65.0437 -31.9016 -32.8291
rradius 114.786
rwrist 16.6224
rhand 32.0316 12.024
rfingers 7.12502
rthumb 55.5236 -5.72909
lclavicle 2.50469e-014 -1.47101e-014
lhumerus -13.0136 9.67861 19.3855
lradius 72.2024
lwrist 8.50457
lhand -15.8004 12.063
lfingers 7.12502
lthumb 10.3927 41.7862
rfemur -73.732 -12.3088 2.04063
rtibia 115.611
rfoot -16.2795 -1.02247
rtoes 3.8875
lfemur -63.9051 13.371 5.441
ltibia 78.946
lfoot -2.0204 -15.2702
ltoes -38.6142
226
root 12.0538 10.5101 10.7995 -17.0279 20.745 3.43564
lowerback 48.6941 -3.5804 -8.94472
upperback 15.5298 -7.70537 1.00167
thorax -1.82654 -4.12638 7.98765
lowerneck 7.39902 -23.9191 -14.6162
upperneck -2.67447 -34.7616 35.0065
head 7.3213 -18.0494 9.38233
rclavicle 3.1408e-014 -2.54444e-014
rhumerus -63.8699 -31.9919 -34.6639
rradius 115.741
rwrist 16.8278
rhand 32.7397 8.86747
rfingers 7.12502
rthumb 56.1517 -8.40401
lclavicle 3.1408e-014 -2.54444e-014
lhumerus -12.3657 9.48199 19.5487
lradius 72.7121
lwrist 8.79696
lhand -16.548 11.1324
lfingers 7.12502
lthumb 9.6715 40.8904
rfemur -74.0752 -13.1376 2.44655
rtibia 116.816
rfoot -15.0743 -1.03196
rtoes 2.43395
lfemur -64.4149 13.6346 5.8869
ltibia 79.2547
lfoot -2.13903 -15.2406
ltoes -38.783
227
root 12.0353 10.4756 10.8161 -16.8823 20.776 2.73794
lowerback 47.1895 -3.79222 -8.56692
upperback 16.38 -7.6069 0.911174
thorax -1.78763 -4.08908 8.1055
lowerneck 7.31669 -23.9295 -14.5671
upperneck -2.88928 -34.7076 34.9545
head 7.22977 -18.03 9.36939
rclavicle 4.81059e-014 -4.77083e-015
rhumerus -62.6156 -31.5353 -36.2159
rradius 116.717
rwrist 16.3838
rhand 36.6435 2.37601
rfingers 7.12502
rthumb 59.5594 -11.8586
lclavicle 4.81059e-014 -4.77083e-015
lhumerus -12.1357 9.25144 20.028
lradius 73.4067
lwrist 9.06957
lhand -15.9497 11.7968
lfingers 7.12502
lthumb 10.2487 41.5272
rfemur -74.4419 -13.941 3.18916
rtibia 117.877
rfoot -14.1272 -0.98862
rtoes 6.37262
lfemur -65.2333 13.9358 6.5393
ltibia 79.6199
lfoot -2.34241 -15.3003
ltoes -39.1215
228
root 12.0379 10.5005 10.8408 -17.0754 21.5605 3.21823
lowerback 48.4813 -3.85568 -9.10094
upperback 15.1462 -8.08728 1.238
thorax -2.1123 -4.30856 8.46607
lowerneck 7.69971 -23.844 -14.9719
upperneck -3.11334 -34.5838 34.8913
head 7.12464 -18.0142 9.47594
rclavicle 3.49861e-014 -5.4467e-014
rhumerus -61.2335 -30.4374 -37.5904
rradius 117.274
rwrist 15.8472
rhand 33.8133 2.55986
rfingers 7.12502
rthumb 57.0987 -13.9436
lclavicle 3.49861e-014 -5.4467e-014
lhumerus -12.5546 8.84471 20.6676
lradius 74.3157
lwrist 9.50762
lhand -15.1948 12.217
lfingers 7.12502
lthumb 10.9769 41.91
rfemur -73.0081 -15.4713 1.90626
rtibia 118.603
rfoot -14.2332 -0.838978
rtoes 5.43866
lfemur -65.0658 13.1207 5.75112
ltibia 80.0345
lfoot -3.11636 -15.1187
ltoes -39.3783
229
root 12.0566 10.5796 10.8764 -17.3962 23.1531 5.38178
lowerback 49.2526 -3.87693 -10.7657
upperback 15.0316 -8.95198 0.781196
thorax -2.02867 -4.75665 9.01471
lowerneck 7.89517 -23.7641 -14.9702
upperneck -3.40027 -34.3854 34.7349
head 6.91292 -17.9554 9.52352
rclavicle -2.3059e-014 1.51076e-014
rhumerus -59.6088 -29.532 -39.2967
rradius 117.328
rwrist 15.4797
rhand 25.879 7.0974
rfingers 7.12502
rthumb 49.9669 -14.1427
lclavicle -2.3059e-014 1.51076e-014
lhumerus -12.8261 8.70663 21.2961
lradius 75.2474
lwrist 9.88262
lhand -14.2672 11.9918
lfingers 7.12502
lthumb 11.8714 41.6352
rfemur -69.6168 -17.5074 -2.09397
rtibia 118.734
rfoot -15.5157 -0.27433
rtoes 1.62925
lfemur -63.7966 11.1198 3.09356
ltibia 80.5212
lfoot -4.00854 -14.5321
ltoes -38.4518
